<mxfile host="www.draw.io" modified="2019-10-23T01:25:49.988Z" agent="Mozilla/5.0 (Windows NT 10.0; Win64; x64) AppleWebKit/537.36 (KHTML, like Gecko) Chrome/76.0.3809.132 Safari/537.36 OPR/63.0.3368.107" etag="5pCDYDdkPjvic2wCwq7h" version="12.1.3" type="github" pages="2">
  <diagram id="KSHIpFmoOiaVg4Vy2zzf" name="Page-1">
    <mxGraphModel dx="1128" dy="719" grid="1" gridSize="10" guides="1" tooltips="1" connect="1" arrows="1" fold="1" page="1" pageScale="1" pageWidth="850" pageHeight="1100" math="0" shadow="0">
      <root>
        <mxCell id="0"/>
        <mxCell id="1" parent="0"/>
      </root>
    </mxGraphModel>
  </diagram>
  <diagram id="7i54R_RhYUrtk8PiSOiv" name="Page-2">
    <mxGraphModel dx="1128" dy="719" grid="1" gridSize="10" guides="1" tooltips="1" connect="1" arrows="1" fold="1" page="1" pageScale="1" pageWidth="850" pageHeight="1100" math="0" shadow="0">
      <root>
        <mxCell id="oU5rTAluhiRdJekyh8xo-0"/>
        <mxCell id="oU5rTAluhiRdJekyh8xo-1" parent="oU5rTAluhiRdJekyh8xo-0"/>
        <mxCell id="oU5rTAluhiRdJekyh8xo-2" value="use the shapes and add extenders and explain why" style="text;html=1;strokeColor=none;fillColor=none;align=center;verticalAlign=middle;whiteSpace=wrap;rounded=0;" vertex="1" parent="oU5rTAluhiRdJekyh8xo-1">
          <mxGeometry x="20" y="20" width="250" height="150" as="geometry"/>
        </mxCell>
      </root>
    </mxGraphModel>
  </diagram>
</mxfile>
